<mxfile host="Electron" modified="2023-11-23T19:29:46.499Z" agent="Mozilla/5.0 (Macintosh; Intel Mac OS X 10_15_7) AppleWebKit/537.36 (KHTML, like Gecko) draw.io/22.1.2 Chrome/114.0.5735.289 Electron/25.9.4 Safari/537.36" etag="DHYsqoYqvofloCu9-FGZ" version="22.1.2" type="device">
  <diagram name="Page-1" id="ssLpnz4dRdgNs2Zpdkk9">
    <mxGraphModel dx="212" dy="18" grid="1" gridSize="10" guides="1" tooltips="1" connect="1" arrows="1" fold="1" page="1" pageScale="1" pageWidth="1100" pageHeight="850" math="0" shadow="0">
      <root>
        <mxCell id="0" />
        <mxCell id="1" parent="0" />
        <mxCell id="HPQqTix-k1KZv60HH8lt-1" value="" style="group" vertex="1" connectable="0" parent="1">
          <mxGeometry x="1907.5" y="1510" width="45" height="45" as="geometry" />
        </mxCell>
        <mxCell id="HPQqTix-k1KZv60HH8lt-2" value="" style="group" vertex="1" connectable="0" parent="HPQqTix-k1KZv60HH8lt-1">
          <mxGeometry width="45" height="45" as="geometry" />
        </mxCell>
        <mxCell id="HPQqTix-k1KZv60HH8lt-21" value="" style="group" vertex="1" connectable="0" parent="HPQqTix-k1KZv60HH8lt-2">
          <mxGeometry width="45" height="45" as="geometry" />
        </mxCell>
        <mxCell id="HPQqTix-k1KZv60HH8lt-3" value="" style="ellipse;whiteSpace=wrap;html=1;aspect=fixed;" vertex="1" parent="HPQqTix-k1KZv60HH8lt-21">
          <mxGeometry width="45" height="45" as="geometry" />
        </mxCell>
        <mxCell id="HPQqTix-k1KZv60HH8lt-4" value="" style="ellipse;whiteSpace=wrap;html=1;aspect=fixed;fillColor=#000000;" vertex="1" parent="HPQqTix-k1KZv60HH8lt-21">
          <mxGeometry x="7.5" y="7.5" width="30" height="30" as="geometry" />
        </mxCell>
        <mxCell id="HPQqTix-k1KZv60HH8lt-16" style="edgeStyle=orthogonalEdgeStyle;rounded=0;orthogonalLoop=1;jettySize=auto;html=1;exitX=0.5;exitY=1;exitDx=0;exitDy=0;entryX=0.5;entryY=0;entryDx=0;entryDy=0;" edge="1" parent="1" source="HPQqTix-k1KZv60HH8lt-8" target="HPQqTix-k1KZv60HH8lt-10">
          <mxGeometry relative="1" as="geometry" />
        </mxCell>
        <mxCell id="HPQqTix-k1KZv60HH8lt-8" value="" style="ellipse;whiteSpace=wrap;html=1;aspect=fixed;fillColor=#000000;" vertex="1" parent="1">
          <mxGeometry x="1570" y="1000" width="30" height="30" as="geometry" />
        </mxCell>
        <mxCell id="HPQqTix-k1KZv60HH8lt-22" style="edgeStyle=orthogonalEdgeStyle;rounded=0;orthogonalLoop=1;jettySize=auto;html=1;exitX=0.5;exitY=1;exitDx=0;exitDy=0;entryX=0.5;entryY=0;entryDx=0;entryDy=0;" edge="1" parent="1" source="HPQqTix-k1KZv60HH8lt-10" target="HPQqTix-k1KZv60HH8lt-13">
          <mxGeometry relative="1" as="geometry" />
        </mxCell>
        <mxCell id="HPQqTix-k1KZv60HH8lt-43" style="edgeStyle=orthogonalEdgeStyle;rounded=0;orthogonalLoop=1;jettySize=auto;html=1;exitX=1;exitY=0.5;exitDx=0;exitDy=0;entryX=1;entryY=0.5;entryDx=0;entryDy=0;" edge="1" parent="1" source="HPQqTix-k1KZv60HH8lt-10" target="HPQqTix-k1KZv60HH8lt-20">
          <mxGeometry relative="1" as="geometry">
            <Array as="points">
              <mxPoint x="2100" y="1100" />
              <mxPoint x="2100" y="1415" />
            </Array>
          </mxGeometry>
        </mxCell>
        <mxCell id="HPQqTix-k1KZv60HH8lt-44" value="Ticket not purchased before flight time" style="edgeLabel;html=1;align=center;verticalAlign=middle;resizable=0;points=[];" vertex="1" connectable="0" parent="HPQqTix-k1KZv60HH8lt-43">
          <mxGeometry x="-0.3023" relative="1" as="geometry">
            <mxPoint x="1" y="-10" as="offset" />
          </mxGeometry>
        </mxCell>
        <mxCell id="HPQqTix-k1KZv60HH8lt-10" value="Available" style="rounded=1;whiteSpace=wrap;html=1;" vertex="1" parent="1">
          <mxGeometry x="1525" y="1070" width="120" height="60" as="geometry" />
        </mxCell>
        <mxCell id="HPQqTix-k1KZv60HH8lt-23" style="edgeStyle=orthogonalEdgeStyle;rounded=0;orthogonalLoop=1;jettySize=auto;html=1;exitX=1;exitY=0.5;exitDx=0;exitDy=0;entryX=0;entryY=0.5;entryDx=0;entryDy=0;" edge="1" parent="1" source="HPQqTix-k1KZv60HH8lt-13" target="HPQqTix-k1KZv60HH8lt-14">
          <mxGeometry relative="1" as="geometry" />
        </mxCell>
        <mxCell id="HPQqTix-k1KZv60HH8lt-37" value="Passenger travels" style="edgeLabel;html=1;align=center;verticalAlign=middle;resizable=0;points=[];" vertex="1" connectable="0" parent="HPQqTix-k1KZv60HH8lt-23">
          <mxGeometry x="-0.0074" relative="1" as="geometry">
            <mxPoint y="-10" as="offset" />
          </mxGeometry>
        </mxCell>
        <mxCell id="HPQqTix-k1KZv60HH8lt-25" style="edgeStyle=orthogonalEdgeStyle;rounded=0;orthogonalLoop=1;jettySize=auto;html=1;exitX=0;exitY=0.5;exitDx=0;exitDy=0;entryX=1;entryY=0.5;entryDx=0;entryDy=0;" edge="1" parent="1" source="HPQqTix-k1KZv60HH8lt-13" target="HPQqTix-k1KZv60HH8lt-18">
          <mxGeometry relative="1" as="geometry" />
        </mxCell>
        <mxCell id="HPQqTix-k1KZv60HH8lt-41" value="Passenger plans change" style="edgeLabel;html=1;align=center;verticalAlign=middle;resizable=0;points=[];" vertex="1" connectable="0" parent="HPQqTix-k1KZv60HH8lt-25">
          <mxGeometry x="-0.0378" y="1" relative="1" as="geometry">
            <mxPoint y="-11" as="offset" />
          </mxGeometry>
        </mxCell>
        <mxCell id="HPQqTix-k1KZv60HH8lt-28" style="edgeStyle=orthogonalEdgeStyle;rounded=0;orthogonalLoop=1;jettySize=auto;html=1;exitX=0.5;exitY=1;exitDx=0;exitDy=0;entryX=0.5;entryY=0;entryDx=0;entryDy=0;" edge="1" parent="1" source="HPQqTix-k1KZv60HH8lt-13" target="HPQqTix-k1KZv60HH8lt-27">
          <mxGeometry relative="1" as="geometry" />
        </mxCell>
        <mxCell id="HPQqTix-k1KZv60HH8lt-38" value="Passenger plans change &amp;amp; does not cancel" style="edgeLabel;html=1;align=center;verticalAlign=middle;resizable=0;points=[];" vertex="1" connectable="0" parent="HPQqTix-k1KZv60HH8lt-28">
          <mxGeometry x="-0.2464" y="3" relative="1" as="geometry">
            <mxPoint y="1" as="offset" />
          </mxGeometry>
        </mxCell>
        <mxCell id="HPQqTix-k1KZv60HH8lt-13" value="Purchased" style="rounded=1;whiteSpace=wrap;html=1;" vertex="1" parent="1">
          <mxGeometry x="1525" y="1210" width="120" height="60" as="geometry" />
        </mxCell>
        <mxCell id="HPQqTix-k1KZv60HH8lt-19" style="edgeStyle=orthogonalEdgeStyle;rounded=0;orthogonalLoop=1;jettySize=auto;html=1;exitX=0.5;exitY=1;exitDx=0;exitDy=0;entryX=0.5;entryY=0;entryDx=0;entryDy=0;" edge="1" parent="1" source="HPQqTix-k1KZv60HH8lt-14" target="HPQqTix-k1KZv60HH8lt-20">
          <mxGeometry relative="1" as="geometry">
            <mxPoint x="1930.6153846153848" y="1380" as="targetPoint" />
          </mxGeometry>
        </mxCell>
        <mxCell id="HPQqTix-k1KZv60HH8lt-39" value="Flight Complete" style="edgeLabel;html=1;align=center;verticalAlign=middle;resizable=0;points=[];" vertex="1" connectable="0" parent="HPQqTix-k1KZv60HH8lt-19">
          <mxGeometry x="-0.1072" y="-1" relative="1" as="geometry">
            <mxPoint y="-1" as="offset" />
          </mxGeometry>
        </mxCell>
        <mxCell id="HPQqTix-k1KZv60HH8lt-14" value="Used&lt;br&gt;(checked in)" style="rounded=1;whiteSpace=wrap;html=1;" vertex="1" parent="1">
          <mxGeometry x="1870" y="1210" width="120" height="60" as="geometry" />
        </mxCell>
        <mxCell id="HPQqTix-k1KZv60HH8lt-26" style="edgeStyle=orthogonalEdgeStyle;rounded=0;orthogonalLoop=1;jettySize=auto;html=1;exitX=0.5;exitY=0;exitDx=0;exitDy=0;entryX=0;entryY=0.5;entryDx=0;entryDy=0;" edge="1" parent="1" source="HPQqTix-k1KZv60HH8lt-18" target="HPQqTix-k1KZv60HH8lt-10">
          <mxGeometry relative="1" as="geometry" />
        </mxCell>
        <mxCell id="HPQqTix-k1KZv60HH8lt-18" value="Cancelled" style="rounded=1;whiteSpace=wrap;html=1;" vertex="1" parent="1">
          <mxGeometry x="1220" y="1210" width="120" height="60" as="geometry" />
        </mxCell>
        <mxCell id="HPQqTix-k1KZv60HH8lt-34" style="edgeStyle=orthogonalEdgeStyle;rounded=0;orthogonalLoop=1;jettySize=auto;html=1;exitX=0.5;exitY=1;exitDx=0;exitDy=0;entryX=0.5;entryY=0;entryDx=0;entryDy=0;" edge="1" parent="1" source="HPQqTix-k1KZv60HH8lt-20" target="HPQqTix-k1KZv60HH8lt-3">
          <mxGeometry relative="1" as="geometry" />
        </mxCell>
        <mxCell id="HPQqTix-k1KZv60HH8lt-20" value="Expired" style="rounded=1;whiteSpace=wrap;html=1;" vertex="1" parent="1">
          <mxGeometry x="1870" y="1385" width="120" height="60" as="geometry" />
        </mxCell>
        <mxCell id="HPQqTix-k1KZv60HH8lt-29" style="edgeStyle=orthogonalEdgeStyle;rounded=0;orthogonalLoop=1;jettySize=auto;html=1;exitX=1;exitY=0.5;exitDx=0;exitDy=0;entryX=0;entryY=0.5;entryDx=0;entryDy=0;" edge="1" parent="1" source="HPQqTix-k1KZv60HH8lt-27" target="HPQqTix-k1KZv60HH8lt-20">
          <mxGeometry relative="1" as="geometry" />
        </mxCell>
        <mxCell id="HPQqTix-k1KZv60HH8lt-40" value="Flight Complete" style="edgeLabel;html=1;align=center;verticalAlign=middle;resizable=0;points=[];" vertex="1" connectable="0" parent="HPQqTix-k1KZv60HH8lt-29">
          <mxGeometry x="0.0222" y="-4" relative="1" as="geometry">
            <mxPoint as="offset" />
          </mxGeometry>
        </mxCell>
        <mxCell id="HPQqTix-k1KZv60HH8lt-27" value="Not Used" style="rounded=1;whiteSpace=wrap;html=1;" vertex="1" parent="1">
          <mxGeometry x="1525" y="1385" width="120" height="60" as="geometry" />
        </mxCell>
        <mxCell id="HPQqTix-k1KZv60HH8lt-35" value="State Transition Diagram for Ticket Object" style="text;html=1;strokeColor=#d6b656;fillColor=#fff2cc;align=center;verticalAlign=middle;whiteSpace=wrap;rounded=0;" vertex="1" parent="1">
          <mxGeometry x="1240" y="960" width="170" height="60" as="geometry" />
        </mxCell>
      </root>
    </mxGraphModel>
  </diagram>
</mxfile>
